<?xml version="1.0" standalone="no"?>
<!DOCTYPE svg PUBLIC "-//W3C//DTD SVG 20010904//EN"
 "http://www.w3.org/TR/2001/REC-SVG-20010904/DTD/svg10.dtd">
<svg version="1.0" xmlns="http://www.w3.org/2000/svg"
 width="1920.000000pt" height="972.000000pt" viewBox="0 0 1920.000000 972.000000"
 preserveAspectRatio="xMidYMid meet">

<g transform="translate(0.000000,972.000000) scale(0.100000,-0.100000)"
fill="#000000" stroke="none">
<path d="M16555 8096 c-129 -29 -251 -99 -356 -205 -60 -61 -139 -169 -139
-191 0 -5 29 -127 65 -272 36 -145 64 -270 63 -278 -2 -8 -26 21 -53 65 -27
44 -77 122 -111 174 l-62 94 -21 -68 c-28 -89 -59 -247 -75 -381 l-13 -109
103 -274 c58 -151 102 -276 100 -278 -2 -3 -51 64 -108 147 l-103 152 -3 -103
c-2 -57 2 -187 7 -287 12 -201 9 -192 97 -307 31 -41 21 -49 -27 -24 l-39 19
0 -30 c0 -44 29 -217 46 -278 9 -29 31 -73 49 -97 l34 -44 -24 -173 c-58 -415
-74 -626 -82 -1073 -7 -398 10 -808 43 -1052 l5 -43 -87 0 -86 0 6 73 c3 39
10 189 16 332 37 1001 8 1722 -81 2042 -19 68 -19 76 -4 125 17 60 20 260 5
403 -15 146 -42 305 -50 300 -4 -3 -27 -37 -51 -76 -24 -40 -44 -68 -46 -63
-2 5 15 63 37 129 22 65 40 127 40 137 0 65 -130 378 -205 492 -17 26 -20 27
-26 10 -4 -11 -13 -79 -20 -151 -7 -73 -16 -133 -21 -133 -4 0 -8 12 -8 28 0
15 -9 114 -19 220 l-19 193 -75 92 c-42 50 -111 127 -155 171 -91 89 -83 92
-103 -47 -7 -48 -15 -90 -19 -92 -4 -2 -20 68 -35 156 l-28 160 -61 44 c-100
71 -140 88 -222 93 -131 8 -210 -33 -256 -134 -19 -41 -23 -65 -23 -154 1
-145 43 -286 160 -536 l47 -101 81 -17 c179 -39 297 -69 297 -77 0 -5 -72 -9
-160 -9 l-161 0 37 -67 c55 -98 164 -272 176 -279 9 -6 291 -44 326 -44 6 0
12 -4 12 -10 0 -6 -55 -10 -145 -10 -80 0 -145 -3 -145 -6 0 -9 175 -248 258
-352 16 -21 37 -27 148 -43 71 -10 135 -19 142 -19 6 0 12 -3 12 -8 0 -4 -38
-16 -84 -26 -46 -10 -89 -22 -96 -26 -10 -6 3 -26 46 -72 197 -211 260 -242
345 -171 25 21 32 24 40 12 27 -44 67 -289 90 -554 26 -314 21 -1379 -10
-1835 l-6 -95 -55 -5 -55 -5 0 -390 c0 -400 0 -406 -42 -535 -8 -25 -25 -66
-37 -91 -20 -39 -22 -48 -10 -64 22 -30 17 -35 -34 -35 -27 0 -57 -6 -68 -15
-17 -13 40 -14 489 -15 444 0 507 2 507 15 0 13 -21 15 -125 15 -134 0 -139 2
-106 48 28 41 77 139 109 222 75 191 116 478 105 728 l-6 122 -163 0 -162 0
-7 66 c-15 139 30 337 109 478 29 52 42 66 54 61 49 -19 126 -27 211 -23 79 4
110 11 173 37 43 18 80 36 83 41 5 8 -61 21 -174 35 -87 11 -41 22 126 30
l155 7 49 50 c51 51 126 155 117 163 -2 3 -44 8 -94 11 -49 4 -95 10 -102 14
-8 4 48 17 124 29 136 23 138 24 202 73 35 27 95 66 133 86 38 20 69 40 69 44
0 3 -16 10 -36 15 -20 4 -35 12 -35 18 1 10 33 9 103 -1 33 -5 42 -1 79 33 51
48 55 85 15 120 -43 37 -100 47 -252 48 l-140 0 -116 -103 c-64 -56 -121 -102
-126 -102 -6 0 16 36 48 79 33 43 60 81 60 84 0 9 -132 -38 -195 -70 -106 -54
-155 -84 -155 -95 0 -4 -18 -55 -41 -113 -41 -106 -64 -137 -49 -67 4 20 11
61 14 91 l7 53 -77 -63 c-81 -68 -90 -81 -107 -171 -6 -32 -14 -58 -17 -58 -4
0 -10 18 -14 40 -4 23 -11 38 -16 35 -19 -12 -87 -120 -98 -155 -24 -76 -18
-133 16 -171 l28 -31 -48 -97 c-71 -140 -100 -265 -96 -408 l3 -113 -26 0
c-25 0 -26 2 -38 108 -32 278 -24 637 20 892 30 171 100 414 145 502 l14 26
39 -19 c75 -36 274 -17 432 41 149 55 148 52 13 89 -199 54 -243 69 -209 70
35 1 302 -16 391 -24 l61 -6 99 75 c55 42 135 110 179 151 l80 76 -85 -5
c-184 -13 -345 -18 -340 -13 3 4 121 31 263 61 256 54 257 55 314 99 32 24 75
53 96 63 l38 20 -63 37 c-73 43 -62 46 47 11 75 -24 84 -25 165 -13 65 8 110
9 185 0 55 -7 136 -15 181 -18 77 -5 82 -4 98 18 45 64 -6 144 -127 197 -89
39 -310 92 -385 92 -18 0 -71 -16 -118 -35 -46 -19 -90 -35 -96 -35 -7 0 6 19
27 41 l40 42 -160 -7 c-88 -3 -189 -13 -224 -20 -68 -15 -57 -7 -239 -184 -30
-29 -57 -51 -59 -48 -2 2 16 42 41 88 25 47 46 87 46 90 0 11 -147 -49 -213
-85 -35 -20 -98 -62 -139 -93 l-76 -57 -12 -94 c-13 -93 -29 -110 -31 -33 -1
74 -11 77 -59 20 -107 -125 -208 -298 -236 -404 -19 -69 -17 -105 4 -145 l19
-35 -33 -77 c-66 -156 -123 -391 -149 -615 -25 -209 -19 -612 11 -806 6 -38 6
-38 -30 -38 -31 0 -36 3 -36 23 0 12 -7 87 -15 167 -8 80 -20 286 -26 459 -13
340 -3 745 27 1071 15 165 72 601 79 608 2 2 26 -1 53 -8 44 -10 54 -9 88 8
73 38 155 144 236 307 63 125 111 236 104 242 -5 5 -188 -46 -249 -69 -15 -6
-30 -8 -34 -4 -3 3 -4 7 -2 9 2 1 24 13 49 25 25 13 100 53 167 89 l121 65 56
172 c30 94 67 214 81 266 15 52 31 108 36 124 5 16 8 31 6 33 -4 4 -111 -44
-236 -106 -100 -49 -118 -52 -70 -8 66 61 302 272 330 297 31 27 43 74 89 335
22 125 45 354 36 362 -3 3 -51 -29 -107 -71 -55 -43 -103 -75 -106 -73 -2 3
33 60 79 126 121 176 129 190 121 231 -33 190 -146 274 -318 236z m395 -2590
c0 -2 -8 -10 -17 -17 -16 -13 -17 -12 -4 4 13 16 21 21 21 13z"/>
<path d="M13965 6446 c-39 -17 -84 -70 -92 -108 -4 -20 -16 -33 -41 -45 -80
-38 -132 -121 -132 -212 0 -42 33 -155 52 -178 15 -19 39 2 111 98 35 46 81
99 102 118 45 39 70 38 149 -10 28 -16 80 -48 116 -69 39 -24 78 -40 97 -40
77 0 113 -81 120 -275 6 -160 5 -158 38 -143 29 13 68 0 83 -29 12 -23 -4 -86
-20 -77 -7 4 -8 3 -4 -5 5 -7 -13 -42 -42 -85 -59 -87 -64 -114 -46 -270 11
-100 23 -131 46 -123 4 1 48 37 98 81 91 79 119 92 83 39 -22 -33 -73 -128
-73 -137 0 -3 9 -6 19 -6 22 0 202 -42 273 -63 l47 -15 92 44 c50 25 96 43
102 41 5 -1 -17 -25 -51 -52 -60 -49 -72 -65 -51 -65 25 0 147 -56 222 -101
96 -59 144 -66 215 -32 18 9 34 14 36 12 9 -13 78 -187 99 -254 114 -352 138
-765 66 -1107 -33 -156 -32 -154 -22 -143 12 12 47 181 64 305 17 124 14 433
-5 565 -30 203 -104 457 -175 604 -15 32 -21 64 -21 110 0 82 -12 127 -57 216
-106 208 -279 403 -445 503 l-36 23 32 -103 c18 -57 36 -113 40 -125 17 -51
-13 -16 -79 94 -111 183 -116 189 -175 203 l-53 13 5 66 c5 65 18 99 74 201
22 38 25 54 21 106 -8 116 -104 251 -212 300 -50 23 -62 25 -123 17 -91 -11
-103 -8 -212 42 -179 82 -267 101 -335 71z"/>
<path d="M3370 6382 c-92 -35 -140 -65 -216 -135 -58 -53 -60 -54 -130 -59
-117 -8 -195 -61 -249 -169 -34 -66 -39 -112 -20 -199 52 -248 149 -466 262
-591 l38 -42 7 44 c9 63 9 129 0 129 -13 0 -60 91 -67 131 -12 65 43 131 100
122 20 -4 20 -6 7 -106 -28 -211 11 -431 96 -532 32 -39 93 -84 113 -85 9 0
21 12 28 28 16 35 110 183 129 201 8 8 11 23 8 37 -5 20 -3 24 17 24 21 0 96
66 85 74 -1 2 -43 11 -93 20 -49 10 -106 26 -126 37 -47 24 -92 78 -128 154
-61 128 -65 229 -13 338 31 68 128 181 145 170 6 -3 7 -1 3 5 -9 15 105 67
181 83 l62 13 78 -39 c131 -64 214 -167 239 -295 5 -24 4 -25 -46 -22 -66 5
-96 -3 -103 -28 -7 -28 9 -37 87 -45 l69 -7 76 79 c45 46 88 103 106 138 26
53 30 71 30 145 0 75 -3 91 -27 132 -60 101 -227 215 -373 254 -33 9 -114 18
-180 20 -112 3 -125 2 -195 -24z"/>
<path d="M6360 6160 c-58 -35 -82 -80 -88 -163 -4 -65 2 -109 23 -159 6 -15 2
-18 -21 -18 -51 0 -153 -29 -227 -64 -238 -110 -386 -331 -443 -660 -20 -110
-14 -255 12 -336 60 -183 217 -290 425 -290 l89 0 0 55 c0 54 -1 55 -28 55
-47 0 -126 28 -170 60 -98 71 -136 186 -136 415 -1 171 0 181 26 290 21 88 66
181 107 221 73 74 195 98 276 56 116 -60 222 -233 241 -390 8 -67 12 -76 27
-65 21 17 67 24 86 13 28 -14 42 -62 30 -103 -9 -32 -69 -97 -114 -123 -18
-10 -18 -15 -6 -95 16 -110 37 -213 57 -279 l15 -52 61 6 c250 29 475 145 524
271 22 58 15 195 -14 277 -95 266 -321 528 -551 637 l-59 28 47 34 c68 50 94
106 88 194 -9 141 -58 197 -176 203 -53 2 -73 -1 -101 -18z"/>
<path d="M9841 6134 c-218 -58 -410 -255 -441 -451 -20 -126 24 -264 115 -358
77 -79 115 -92 115 -38 0 44 30 144 65 213 54 107 148 170 256 170 45 0 140
-30 133 -41 -3 -5 1 -7 8 -4 7 3 32 -12 54 -33 82 -74 157 -223 171 -339 6
-58 31 -97 52 -83 21 12 68 -9 75 -33 15 -56 7 -89 -32 -126 -21 -20 -47 -41
-57 -46 -46 -27 -62 -317 -25 -460 23 -89 25 -83 -54 -158 -60 -56 -139 -98
-200 -104 -58 -7 -134 28 -199 92 l-48 46 30 34 c37 42 71 133 71 189 l0 43
-71 12 c-39 6 -84 18 -99 26 -34 17 -90 72 -91 88 0 7 -11 -30 -24 -81 -13
-51 -42 -132 -64 -180 -21 -48 -45 -107 -52 -131 -11 -36 -20 -46 -48 -58
-340 -139 -558 -322 -673 -569 -16 -35 -28 -70 -26 -78 5 -22 207 -226 353
-356 71 -63 149 -134 174 -157 70 -63 105 -93 112 -93 3 0 19 15 37 33 l31 32
-19 63 c-46 148 -49 412 -5 412 12 0 14 -6 8 -27 -16 -59 -6 -264 17 -348 11
-44 23 -87 25 -96 2 -9 16 -43 30 -75 69 -150 124 -321 154 -479 12 -63 22
-90 32 -90 8 -1 46 5 84 12 169 32 509 58 950 73 171 6 329 13 351 16 l41 5 9
242 c4 133 8 251 9 262 1 20 -50 123 -171 347 -35 64 -64 120 -64 123 0 4 7 5
17 3 9 -2 59 -85 124 -208 60 -113 110 -209 112 -214 3 -8 83 19 397 134 132
48 182 65 195 65 13 0 35 21 35 33 0 19 -150 242 -226 338 -118 147 -110 130
-75 166 67 68 97 184 88 336 -10 170 -63 309 -154 412 -193 216 -403 609 -484
906 -36 135 -80 217 -156 293 -90 89 -154 116 -263 108 l-75 -6 -60 45 c-176
133 -408 193 -574 148z"/>
<path d="M14128 5820 c-16 -4 -24 -14 -26 -33 -4 -30 -6 -29 98 -29 43 0 56 3
58 16 2 9 -1 23 -8 31 -12 14 -85 23 -122 15z"/>
<path d="M13736 5797 c-10 -7 -17 -22 -14 -33 3 -16 13 -19 76 -22 71 -3 72
-3 72 22 0 20 -7 27 -37 35 -50 14 -76 14 -97 -2z"/>
<path d="M3452 5728 c-13 -13 -16 -44 -4 -51 4 -2 39 -7 79 -11 66 -7 73 -5
83 13 8 17 7 24 -10 41 -15 15 -33 20 -78 20 -32 0 -63 -5 -70 -12z"/>
<path d="M13788 5659 c-28 -16 -23 -65 7 -85 49 -32 97 15 71 68 -13 25 -51
34 -78 17z"/>
<path d="M14120 5640 c-11 -11 -20 -28 -20 -38 0 -40 64 -69 88 -39 21 27 24
58 6 78 -22 24 -49 24 -74 -1z"/>
<path d="M3482 5583 c-18 -7 -32 -46 -25 -71 13 -52 105 -42 111 12 6 48 -38
78 -86 59z"/>
<path d="M3772 5558 c-21 -21 -15 -76 12 -93 56 -37 118 42 70 89 -18 19 -65
21 -82 4z"/>
<path d="M13695 5487 c-210 -126 -325 -260 -325 -383 0 -35 6 -59 18 -74 21
-26 112 -50 194 -50 55 0 60 2 151 71 l95 71 -32 33 c-18 18 -38 52 -45 76
-14 48 -33 247 -25 261 7 11 -7 9 -31 -5z"/>
<path d="M9666 5334 c-38 -37 -15 -54 75 -54 56 0 59 1 59 25 0 14 -8 29 -19
35 -30 15 -97 12 -115 -6z"/>
<path d="M9975 5320 c-10 -30 0 -37 56 -42 64 -7 89 -1 89 21 0 30 -22 41 -81
41 -49 0 -59 -3 -64 -20z"/>
<path d="M5847 5293 c-14 -13 -6 -43 13 -53 11 -6 44 -10 73 -8 46 3 52 6 55
27 2 13 -2 28 -10 32 -15 10 -122 12 -131 2z"/>
<path d="M6186 5287 c-10 -7 -17 -22 -14 -33 3 -15 14 -20 63 -25 71 -7 95 2
88 32 -10 36 -99 53 -137 26z"/>
<path d="M3619 5255 c0 0 -2 -9 -4 -19 -2 -11 -6 -30 -9 -42 -6 -21 -2 -23 51
-29 32 -3 64 -7 72 -8 29 -4 22 -28 -18 -69 l-41 -41 -65 6 c-42 4 -65 3 -65
-4 0 -6 -4 -8 -9 -5 -4 3 -8 -2 -8 -12 1 -20 -44 -116 -66 -140 -41 -46 -79
-237 -47 -237 9 0 16 11 18 25 4 41 22 112 39 158 12 32 21 42 38 42 12 0 29
-7 36 -16 20 -25 165 -13 228 18 80 40 107 101 118 260 5 79 3 98 -8 102 -10
4 -189 11 -260 11z"/>
<path d="M9683 5198 c-19 -25 -21 -46 -7 -67 21 -29 60 -27 80 4 15 23 15 27
0 50 -18 27 -57 34 -73 13z"/>
<path d="M9988 5199 c-23 -13 -24 -74 -2 -83 25 -10 59 -7 72 6 13 13 16 47 4
65 -11 17 -54 24 -74 12z"/>
<path d="M5866 5144 c-22 -21 -20 -50 5 -75 20 -20 51 -19 73 2 14 13 11 70
-5 80 -22 14 -56 11 -73 -7z"/>
<path d="M6193 5150 c-18 -7 -23 -17 -23 -43 0 -38 15 -57 46 -57 51 0 73 66
32 94 -25 18 -25 18 -55 6z"/>
<path d="M13850 5071 c-8 -10 -31 -35 -50 -55 l-35 -38 75 6 c199 17 190 14
190 50 0 32 0 32 -70 44 -87 15 -91 15 -110 -7z"/>
<path d="M3026 4863 c-72 -20 -217 -125 -311 -225 -353 -375 -661 -1072 -924
-2089 -41 -158 -111 -463 -111 -484 0 -3 -157 -5 -350 -5 -304 0 -350 -2 -350
-15 0 -13 119 -15 1007 -15 1005 0 1006 0 988 20 -10 11 -22 20 -27 20 -24 0
-106 115 -165 232 -145 286 -214 639 -212 1093 0 127 6 280 12 340 l12 110
313 5 c171 3 312 2 312 -1 0 -4 -7 -26 -16 -50 -27 -77 -117 -410 -168 -629
-89 -377 -124 -760 -70 -748 10 2 14 43 18 173 8 265 70 557 258 1209 16 54
17 70 7 76 -10 7 -10 28 2 112 20 147 18 405 -4 486 -27 101 -23 177 17 282
24 64 31 92 22 97 -13 9 -233 14 -260 6z"/>
<path d="M3530 4761 c-23 -76 -23 -116 0 -116 11 0 17 16 22 57 4 32 12 67 18
77 14 28 12 51 -5 51 -9 0 -22 -25 -35 -69z"/>
<path d="M3647 4718 c-37 -139 -39 -168 -12 -168 8 0 17 23 24 64 6 34 17 84
25 109 8 25 11 48 8 51 -16 17 -31 -1 -45 -56z"/>
<path d="M6617 4373 c-18 -3 -54 -31 -105 -82 -88 -88 -150 -122 -234 -129
-71 -5 -144 26 -213 91 l-47 46 -97 -15 c-321 -47 -568 -111 -703 -181 -171
-89 -593 -616 -799 -998 l-39 -73 92 -6 c51 -3 228 -11 393 -16 165 -6 318
-12 341 -14 l41 -2 54 83 c33 51 61 83 72 83 24 0 21 -17 -8 -55 -13 -18 -21
-36 -17 -40 4 -5 2 -6 -3 -2 -6 3 -23 -14 -39 -39 -15 -24 -31 -44 -36 -44
-11 0 -43 -57 -130 -230 -41 -80 -76 -147 -79 -150 -3 -3 -19 -33 -35 -67
l-30 -63 -55 8 c-97 12 -392 8 -434 -6 -45 -16 -97 -58 -97 -78 0 -18 36 -18
43 0 17 44 167 72 332 61 61 -4 141 -9 179 -11 65 -3 96 -9 295 -55 195 -46
467 -99 582 -114 230 -30 340 -60 461 -128 37 -21 84 -55 106 -77 l39 -40 398
0 397 0 -15 24 c-81 123 -210 557 -242 811 -18 142 -64 189 -219 221 -72 16
-340 21 -422 8 -35 -5 -45 -2 -69 20 -16 14 -26 28 -24 30 17 16 107 28 237
33 84 3 151 8 148 10 -2 3 -68 18 -146 33 -214 44 -334 87 -288 105 14 6 278
-24 368 -41 61 -12 20 12 -45 25 -92 20 -288 77 -323 95 -39 20 -48 34 -27 42
25 10 345 -47 503 -89 77 -21 72 -4 -6 21 -177 56 -401 122 -414 122 -8 0 -22
8 -31 18 -14 16 -14 20 0 49 14 30 18 32 57 27 98 -12 324 -79 563 -167 67
-24 124 -42 127 -40 2 3 0 17 -5 33 -13 37 -8 102 9 108 8 2 35 -18 61 -45 67
-69 231 -289 231 -309 0 -16 75 -129 374 -559 86 -124 109 -165 131 -228 30
-88 30 -135 -1 -236 -6 -19 -4 -22 11 -20 48 10 58 182 16 289 -11 30 -56 107
-98 171 -95 142 -165 242 -172 249 -15 13 -224 330 -220 334 9 8 421 196 430
196 17 0 9 48 -30 202 -52 201 -73 265 -126 374 -53 110 -115 172 -268 266
-194 120 -357 169 -551 167 -66 -1 -134 -4 -149 -6z"/>
<path d="M3654 3640 c10 -48 28 -1012 23 -1133 -4 -67 -11 -147 -17 -177 -19
-89 -63 -220 -74 -220 -6 0 -4 -5 4 -10 12 -8 12 -10 1 -10 -12 0 -61 -44 -61
-56 0 -2 140 -4 310 -4 269 0 310 2 310 15 0 13 -28 15 -196 15 l-195 0 8 58
c4 31 8 80 7 109 0 31 3 50 9 46 16 -9 1 591 -18 727 -8 63 -18 140 -21 170
-3 30 -10 57 -15 58 -5 2 -7 7 -5 11 3 4 0 38 -5 76 -5 39 -11 81 -13 95 -10
77 -39 227 -47 240 -7 11 -8 8 -5 -10z m63 -472 c-3 -7 -5 -2 -5 12 0 14 2 19
5 13 2 -7 2 -19 0 -25z m-10 -80 c-3 -7 -5 -2 -5 12 0 14 2 19 5 13 2 -7 2
-19 0 -25z m70 -400 c-3 -8 -6 -5 -6 6 -1 11 2 17 5 13 3 -3 4 -12 1 -19z m0
-80 c-3 -7 -5 -2 -5 12 0 14 2 19 5 13 2 -7 2 -19 0 -25z m0 -200 c-3 -7 -5
-2 -5 12 0 14 2 19 5 13 2 -7 2 -19 0 -25z"/>
<path d="M8747 2240 c-101 -51 -217 -127 -217 -141 0 -22 25 -15 89 26 38 25
111 67 162 93 87 44 108 63 77 70 -7 1 -57 -20 -111 -48z"/>
<path d="M8904 2209 c-117 -61 -284 -164 -284 -175 0 -23 24 -20 65 6 35 24
103 63 253 147 23 13 42 28 42 33 0 20 -20 17 -76 -11z"/>
<path d="M13445 2206 c-28 -18 -74 -59 -103 -92 -52 -57 -66 -94 -37 -94 8 0
15 3 15 8 0 19 98 116 155 153 61 40 74 60 37 58 -9 0 -40 -15 -67 -33z"/>
<path d="M13285 2181 c-51 -38 -105 -94 -123 -127 -9 -16 -16 -16 -83 -5 -48
8 -257 14 -589 18 l-515 6 -19 -22 -19 -21 654 1 c360 1 644 4 632 6 -13 2
-23 7 -23 11 0 12 120 121 141 127 20 7 23 36 4 41 -5 2 -33 -14 -60 -35z"/>
<path d="M13590 2203 c-62 -41 -150 -140 -150 -170 0 -26 27 -12 57 31 17 24
57 63 88 86 46 34 54 44 44 56 -6 8 -12 14 -13 13 0 0 -12 -7 -26 -16z"/>
<path d="M9738 2113 l-3 -48 -140 -2 c-77 0 -196 -7 -265 -13 -98 -10 -157
-10 -275 0 -131 10 -155 10 -185 -3 -32 -14 -9 -15 290 -16 179 -1 498 -4 710
-7 212 -4 382 -3 378 1 -4 4 -31 13 -60 20 -89 22 -289 75 -357 96 -88 27 -89
26 -93 -28z"/>
<path d="M13613 2075 c-36 -37 -42 -55 -17 -55 22 0 76 60 70 77 -8 20 -18 16
-53 -22z"/>
<path d="M6040 2077 c0 -6 21 -23 46 -37 48 -25 80 -53 147 -130 27 -31 41
-40 49 -32 25 25 -118 172 -195 201 -37 14 -47 14 -47 -2z"/>
<path d="M5945 2049 c-8 -12 -9 -11 48 -52 25 -18 64 -56 88 -86 34 -43 44
-50 51 -37 13 23 -41 97 -106 146 -55 42 -70 47 -81 29z"/>
<path d="M6215 2050 c-3 -5 12 -21 34 -35 23 -14 64 -50 93 -80 54 -58 68 -65
68 -39 0 25 -50 83 -108 125 -56 40 -76 47 -87 29z"/>
<path d="M7867 2053 c-4 -3 -7 -10 -7 -15 0 -4 146 -8 325 -8 282 0 325 2 325
15 0 13 -42 15 -318 15 -175 0 -322 -3 -325 -7z"/>
<path d="M5906 1941 c-6 -9 58 -71 73 -71 22 0 18 17 -11 47 -32 33 -52 41
-62 24z"/>
</g>
</svg>
